<svg width="3131" height="464" viewBox="0 0 3131 464" fill="none" xmlns="http://www.w3.org/2000/svg">
<path d="M138.458 69.2288C138.458 30.9952 107.462 0 69.2288 0C30.9952 0 0 30.9952 0 69.2288C0 107.462 30.9952 138.458 69.2288 138.458C107.462 138.458 138.458 107.462 138.458 69.2288ZM301.229 69.2288C301.229 30.9952 270.234 0 232 0C193.766 0 162.771 30.9952 162.771 69.2288C162.771 107.462 193.766 138.458 232 138.458C270.234 138.458 301.229 107.462 301.229 69.2288ZM464 69.2288C464 30.9952 433.005 0 394.771 0C356.538 0 325.542 30.9952 325.542 69.2288C325.542 107.462 356.538 138.458 394.771 138.458C433.005 138.458 464 107.462 464 69.2288ZM301.229 232C301.229 193.766 270.234 162.771 232 162.771C193.766 162.771 162.771 193.766 162.771 232C162.771 270.234 193.766 301.229 232 301.229C270.234 301.229 301.229 270.234 301.229 232ZM301.229 394.771C301.229 356.538 270.234 325.542 232 325.542C193.766 325.542 162.771 356.538 162.771 394.771C162.771 433.005 193.766 464 232 464C270.234 464 301.229 433.005 301.229 394.771Z" fill="#0066FF"/>
<path d="M750.1 343H706.6L691 297.1H602.2L586.6 343H543.1L617.5 133H675.4L750.1 343ZM643.6 175.6L614.5 261.4H678.7L649.6 175.6H643.6ZM837.285 346C793.185 346 759.885 312.7 759.885 267.1C759.885 221.2 793.185 187.9 837.285 187.9C879.885 187.9 904.185 217 909.885 246.7H871.785C867.885 234.4 857.085 223 837.285 223C815.685 223 797.685 240.4 797.685 267.1C797.685 293.5 815.685 311.2 837.285 311.2C857.085 311.2 867.885 299.8 871.785 286.3H909.885C904.185 316.9 879.885 346 837.285 346ZM1008.09 346C963.986 346 930.686 312.7 930.686 267.1C930.686 221.2 963.986 187.9 1008.09 187.9C1050.69 187.9 1074.99 217 1080.69 246.7H1042.59C1038.69 234.4 1027.89 223 1008.09 223C986.486 223 968.486 240.4 968.486 267.1C968.486 293.5 986.486 311.2 1008.09 311.2C1027.89 311.2 1038.69 299.8 1042.59 286.3H1080.69C1074.99 316.9 1050.69 346 1008.09 346ZM1178.89 346C1134.79 346 1101.49 312.7 1101.49 267.1C1101.49 221.2 1134.79 187.9 1178.89 187.9C1221.49 187.9 1253.89 220.3 1253.89 263.8C1253.89 271 1252.99 277 1252.39 279.4H1138.99C1141.39 299.8 1157.89 314.5 1178.89 314.5C1195.09 314.5 1206.49 306.1 1211.29 298.6H1249.69C1242.79 319.6 1220.29 346 1178.89 346ZM1138.99 254.2H1216.39C1214.29 234.4 1199.59 219.1 1178.89 219.1C1156.69 219.1 1141.99 234.4 1138.99 254.2ZM1322.9 343H1285.1V133H1322.9V343ZM1431.72 346C1387.62 346 1354.32 312.7 1354.32 267.1C1354.32 221.2 1387.62 187.9 1431.72 187.9C1474.32 187.9 1506.72 220.3 1506.72 263.8C1506.72 271 1505.82 277 1505.22 279.4H1391.82C1394.22 299.8 1410.72 314.5 1431.72 314.5C1447.92 314.5 1459.32 306.1 1464.12 298.6H1502.52C1495.62 319.6 1473.12 346 1431.72 346ZM1391.82 254.2H1469.22C1467.12 234.4 1452.42 219.1 1431.72 219.1C1409.52 219.1 1394.82 234.4 1391.82 254.2ZM1574.24 343H1536.44V190.9H1569.14L1572.14 204.1H1573.64C1578.14 196.9 1586.84 190.9 1600.94 190.9H1628.84V226.6H1603.34C1584.14 226.6 1574.24 236.5 1574.24 256.3V343ZM1696.64 346C1662.74 346 1641.74 325.6 1641.74 299.2C1641.74 270.1 1661.84 249.4 1703.84 249.4H1739.54V246.1C1739.54 230.2 1728.74 219.1 1712.24 219.1C1695.44 219.1 1686.74 228.1 1684.64 236.5H1647.74C1650.14 212.2 1672.04 187.9 1712.24 187.9C1752.44 187.9 1777.34 212.5 1777.34 246.1V343H1744.64L1741.64 328.3H1740.14C1734.44 335.8 1718.84 346 1696.64 346ZM1703.24 315.7C1726.04 315.7 1739.54 302.2 1739.54 280.9V276.4H1707.74C1687.94 276.4 1679.54 284.8 1679.54 296.2C1679.54 307.9 1687.94 315.7 1703.24 315.7ZM1896.14 343H1862.54C1837.64 343 1823.84 329.2 1823.84 306.7V226.6H1799.84V190.9H1823.84V145.3H1861.64V190.9H1896.14V226.6H1861.64V298.9C1861.64 305.8 1864.64 308.8 1871.54 308.8H1896.14V343ZM1992.17 346C1948.07 346 1914.77 312.7 1914.77 267.1C1914.77 221.2 1948.07 187.9 1992.17 187.9C2034.77 187.9 2067.17 220.3 2067.17 263.8C2067.17 271 2066.27 277 2065.67 279.4H1952.27C1954.67 299.8 1971.17 314.5 1992.17 314.5C2008.37 314.5 2019.77 306.1 2024.57 298.6H2062.97C2056.07 319.6 2033.57 346 1992.17 346ZM1952.27 254.2H2029.67C2027.57 234.4 2012.87 219.1 1992.17 219.1C1969.97 219.1 1955.27 234.4 1952.27 254.2ZM2217.14 343H2176.94V133H2217.14V343ZM2295.82 343H2258.02V190.9H2290.72L2293.72 205.6H2295.22C2300.62 197.8 2315.02 187.9 2332.42 187.9C2354.92 187.9 2369.62 201.1 2374.72 210.4H2376.22C2382.82 200.2 2399.92 187.9 2423.32 187.9C2455.12 187.9 2479.12 213.4 2479.12 248.8V343H2441.62V253.3C2441.62 234.7 2431.12 223.9 2415.52 223.9C2400.22 223.9 2387.62 236.2 2387.62 253.3V343H2349.82V253.3C2349.82 234.7 2339.32 223.9 2324.02 223.9C2308.12 223.9 2295.82 236.2 2295.82 253.3V343ZM2553.92 403H2516.12V190.9H2548.82L2551.82 208H2553.32C2562.02 196.6 2577.32 187.9 2598.32 187.9C2637.32 187.9 2668.82 220 2668.82 267.1C2668.82 314.2 2637.32 346 2598.32 346C2577.62 346 2562.92 337.3 2555.42 327.7H2553.92V403ZM2592.62 311.2C2613.92 311.2 2631.02 294.1 2631.02 267.1C2631.02 239.8 2613.92 223 2592.62 223C2571.32 223 2553.92 239.8 2553.92 267.1C2553.92 294.1 2571.32 311.2 2592.62 311.2ZM2746.94 346C2713.04 346 2692.04 325.6 2692.04 299.2C2692.04 270.1 2712.14 249.4 2754.14 249.4H2789.84V246.1C2789.84 230.2 2779.04 219.1 2762.54 219.1C2745.74 219.1 2737.04 228.1 2734.94 236.5H2698.04C2700.44 212.2 2722.34 187.9 2762.54 187.9C2802.74 187.9 2827.64 212.5 2827.64 246.1V343H2794.94L2791.94 328.3H2790.44C2784.74 335.8 2769.14 346 2746.94 346ZM2753.54 315.7C2776.34 315.7 2789.84 302.2 2789.84 280.9V276.4H2758.04C2738.24 276.4 2729.84 284.8 2729.84 296.2C2729.84 307.9 2738.24 315.7 2753.54 315.7ZM2934.06 346C2889.96 346 2856.66 312.7 2856.66 267.1C2856.66 221.2 2889.96 187.9 2934.06 187.9C2976.66 187.9 3000.96 217 3006.66 246.7H2968.56C2964.66 234.4 2953.86 223 2934.06 223C2912.46 223 2894.46 240.4 2894.46 267.1C2894.46 293.5 2912.46 311.2 2934.06 311.2C2953.86 311.2 2964.66 299.8 2968.56 286.3H3006.66C3000.96 316.9 2976.66 346 2934.06 346ZM3117.23 343H3083.63C3058.73 343 3044.93 329.2 3044.93 306.7V226.6H3020.93V190.9H3044.93V145.3H3082.73V190.9H3117.23V226.6H3082.73V298.9C3082.73 305.8 3085.73 308.8 3092.63 308.8H3117.23V343Z" fill="#0066FF"/>
</svg>
