<svg width="104" height="104" viewBox="0 0 104 104" fill="none" xmlns="http://www.w3.org/2000/svg">
<rect width="104" height="104" fill="#0066FF"/>
<path d="M39.0976 29.5488C39.0976 24.2752 34.8224 20 29.5488 20C24.2752 20 20 24.2752 20 29.5488C20 34.8224 24.2752 39.0976 29.5488 39.0976C34.8224 39.0976 39.0976 34.8224 39.0976 29.5488ZM61.5488 29.5488C61.5488 24.2752 57.2736 20 52 20C46.7264 20 42.4512 24.2752 42.4512 29.5488C42.4512 34.8224 46.7264 39.0976 52 39.0976C57.2736 39.0976 61.5488 34.8224 61.5488 29.5488ZM84 29.5488C84 24.2752 79.7248 20 74.4512 20C69.1776 20 64.9024 24.2752 64.9024 29.5488C64.9024 34.8224 69.1776 39.0976 74.4512 39.0976C79.7248 39.0976 84 34.8224 84 29.5488ZM61.5488 52C61.5488 46.7264 57.2736 42.4512 52 42.4512C46.7264 42.4512 42.4512 46.7264 42.4512 52C42.4512 57.2736 46.7264 61.5488 52 61.5488C57.2736 61.5488 61.5488 57.2736 61.5488 52ZM61.5488 74.4512C61.5488 69.1776 57.2736 64.9024 52 64.9024C46.7264 64.9024 42.4512 69.1776 42.4512 74.4512C42.4512 79.7248 46.7264 84 52 84C57.2736 84 61.5488 79.7248 61.5488 74.4512Z" fill="white"/>
</svg>
